{"title":"Into the Woods (2014) DVDRip H264 AAC","uid":11871297,"size":724953649,"categoryP":"video","categoryS":"movies","magnet":"?xt=urn:btih:468d617824c4e34a73d966411f45e6c824745f55&amp;dn=Into+the+Woods+%282014%29+DVDRip+H264+AAC&amp;tr=udp%3A%2F%2Ftracker.openbittorrent.com%3A80&amp;tr=udp%3A%2F%2Fopen.demonii.com%3A1337&amp;tr=udp%3A%2F%2Ftracker.coppersurfer.tk%3A6969&amp;tr=udp%3A%2F%2Fexodus.desync.com%3A6969","seeders":0,"leechers":1,"uploader":"Xanthippus","files":1,"time":1430428422,"description":"A witch tasks a childless baker and his wife with procuring magical items from classic fairy tales to reverse the curse put on their family tree.\n\n----\n\nVideo\nID                                       : 1\nFormat                                   : AVC\nFormat/Info                              : Advanced Video Codec\nFormat profile                           : High@L3\nFormat settings, CABAC                   : Yes\nFormat settings, ReFrames                : 5 frames\nCodec ID                                 : avc1\nCodec ID/Info                            : Advanced Video Coding\nDuration                                 : 2h 4mn\nBit rate                                 : 638 Kbps\nWidth                                    : 720 pixels\nHeight                                   : 352 pixels\nDisplay aspect ratio                     : 2.40:1\nFrame rate mode                          : Constant\nFrame rate                               : 29.970 fps\nColor space                              : YUV\nChroma subsampling                       : 4:2:0\nBit depth                                : 8 bits\nScan type                                : Progressive\nBits/(Pixel*Frame)                       : 0.084\nStream size                              : 569 MiB (82%)\n\nAudio\nID                                       : 2\nFormat                                   : AAC\nFormat/Info                              : Advanced Audio Codec\nFormat profile                           : LC\nCodec ID                                 : 40\nDuration                                 : 2h 4mn\nBit rate mode                            : Constant\nBit rate                                 : 128 Kbps\nChannel(s)                               : 2 channels\nChannel positions                        : Front: L R\nSampling rate                            : 48.0 KHz\nCompression mode                         : Lossy\nStream size                              : 114 MiB (17%)\n\n----\n &lt;a href=&quot;\nhttp://www.imdb.com/title/tt2180411/&quot; rel=&quot;nofollow&quot; target=&quot;_NEW&quot;&gt;\nhttp://www.imdb.com/title/tt2180411/&lt;/a&gt;","torrent":{"xt":"urn:btih:468d617824c4e34a73d966411f45e6c824745f55","amp;dn":"Into+the+Woods+%282014%29+DVDRip+H264+AAC","amp;tr":["udp%3A%2F%2Ftracker.openbittorrent.com%3A80","udp%3A%2F%2Fopen.demonii.com%3A1337","udp%3A%2F%2Ftracker.coppersurfer.tk%3A6969","udp%3A%2F%2Fexodus.desync.com%3A6969"],"infoHash":"468d617824c4e34a73d966411f45e6c824745f55","infoHashBuffer":{"type":"Buffer","data":[70,141,97,120,36,196,227,74,115,217,102,65,31,69,230,200,36,116,95,85]},"announce":[],"urlList":[]}}